<svg width="512" height="512" viewBox="0 0 512 512" fill="none" xmlns="http://www.w3.org/2000/svg">
<rect width="512" height="512" fill="#EEEEEE"/>
<path d="M199.901 252.28C189.501 252.28 183.521 258.52 185.341 267.36H180.401C178.321 262.68 177.021 257.22 177.021 252.02C177.021 239.28 183.261 230.18 192.361 226.28C195.741 224.72 199.381 223.68 207.701 223.68V220.04C207.441 193.26 220.181 191.18 239.681 176.88C236.301 177.66 232.661 178.18 229.021 178.18C218.621 178.18 209.261 174.28 199.121 174.28C190.541 174.28 184.301 178.44 181.701 184.68H175.721C176.761 182.08 191.841 147.24 219.921 147.24C232.401 147.24 242.021 153.74 254.501 153.74C263.861 153.74 271.401 150.1 276.601 145.16L276.341 152.18C275.041 153.74 267.501 162.84 256.321 169.86C255.021 170.9 253.981 171.68 252.681 172.72C244.101 180.78 241.241 195.6 241.241 210.16V261.9C241.241 290.5 219.401 317.54 200.161 317.54H191.581C202.241 311.04 207.701 293.36 207.701 268.66V252.28C205.101 252.28 202.501 252.28 199.901 252.28ZM257.621 303.24C261.261 302.98 264.901 302.72 268.801 302.72C294.021 302.72 315.861 310.26 333.801 319.36L342.381 313.12L346.541 319.1L308.321 347.44C291.421 337.82 271.921 332.36 252.161 332.36C227.461 332.36 205.101 340.16 186.121 354.2V349.26C197.301 329.24 216.281 313.12 241.761 306.1C250.081 296.74 252.681 281.66 252.681 258.78V220.04C252.681 169.6 272.441 153.22 313.521 145.68L316.381 145.16V150.88L311.961 152.18C291.941 158.16 286.221 175.32 285.961 197.42V257.48C285.961 278.02 278.941 286.86 257.621 303.24Z" fill="black"/>
</svg>
